<!-- Generated by IcoMoon.io -->
<svg version="1.1" xmlns="http://www.w3.org/2000/svg" width="32" height="32" viewBox="0 0 32 32">
<path d="M11.278 15.041c-0.25 0.25-0.39 0.589-0.39 0.943s0.14 0.692 0.39 0.943l7.543 7.543c0.123 0.127 0.27 0.229 0.433 0.299s0.338 0.107 0.515 0.108c0.177 0.001 0.353-0.032 0.516-0.099s0.313-0.166 0.438-0.291c0.125-0.125 0.224-0.274 0.291-0.438s0.101-0.339 0.099-0.516c-0.002-0.177-0.038-0.352-0.108-0.515s-0.171-0.31-0.299-0.433l-6.6-6.6 6.6-6.6c0.243-0.251 0.377-0.588 0.374-0.938s-0.143-0.684-0.391-0.931c-0.247-0.247-0.582-0.387-0.931-0.39s-0.686 0.131-0.938 0.374l-7.543 7.543z"></path>
</svg>
