<!-- Generated by IcoMoon.io -->
<svg version="1.1" xmlns="http://www.w3.org/2000/svg" width="32" height="32" viewBox="0 0 32 32">
<path d="M16.913 20.497c-0.238 0.238-0.561 0.372-0.898 0.372s-0.66-0.134-0.898-0.372l-7.184-7.183c-0.121-0.117-0.218-0.257-0.285-0.412s-0.102-0.322-0.103-0.49c-0.001-0.169 0.031-0.336 0.095-0.492s0.158-0.298 0.277-0.417c0.119-0.119 0.261-0.214 0.417-0.277s0.323-0.096 0.492-0.095c0.169 0.001 0.335 0.037 0.49 0.103s0.295 0.163 0.412 0.285l6.286 6.286 6.286-6.286c0.239-0.231 0.56-0.359 0.893-0.356s0.651 0.136 0.887 0.372c0.235 0.235 0.369 0.554 0.372 0.887s-0.125 0.654-0.356 0.893l-7.184 7.183z"></path>
</svg>
