<!-- Generated by IcoMoon.io -->
<svg version="1.1" xmlns="http://www.w3.org/2000/svg" width="32" height="32" viewBox="0 0 32 32">
<path d="M16 0l-13.091 5.818v8.727c0 8.073 5.585 15.622 13.091 17.455 7.505-1.833 13.091-9.382 13.091-17.455v-8.727l-13.091-5.818zM16 8.727c2.036 0 4.073 1.6 4.073 3.636v2.182c0.873 0 1.745 0.873 1.745 1.891v5.091c0 0.873-0.873 1.745-1.891 1.745h-8c-0.873 0-1.745-0.873-1.745-1.891v-5.091c0-0.873 0.873-1.745 1.745-1.745v-2.182c0-2.036 2.036-3.636 4.073-3.636zM16 10.473c-1.164 0-2.182 0.727-2.182 1.891v2.182h4.364v-2.182c0-1.164-1.018-1.891-2.182-1.891z"></path>
</svg>
