<!-- Generated by IcoMoon.io -->
<svg version="1.1" xmlns="http://www.w3.org/2000/svg" width="32" height="32" viewBox="0 0 32 32">
<path d="M15.312 6.558c-0.050-0.707-0.37-1.253-0.835-1.511s-1.031-0.202-1.534 0.193c-0.811 0.636-1.93 1.577-3.391 2.936-1.799 1.673-2.826 2.931-3.404 3.773-0.58 0.846-0.58 1.964 0 2.809 0.578 0.843 1.605 2.1 3.404 3.773 1.462 1.36 2.581 2.301 3.392 2.937 0.503 0.393 1.069 0.449 1.534 0.192s0.785-0.805 0.835-1.511c0.055-0.773 0.107-1.783 0.142-3.091 0.66-0.047 1.321-0.063 1.982-0.049 1.155 0.025 2.113 0.971 2.47 2.298l1.64 6.111c0.209 0.776 0.709 1.48 1.47 1.611 0.283 0.048 0.623 0.083 1.020 0.083 0.383 0 0.712-0.032 0.988-0.077 0.79-0.131 1.241-0.947 1.256-1.795 0.052-3.013-0.152-6.159-0.414-8.839-0.409-4.187-3.637-7.004-7.195-7.051-1.077-0.013-2.154-0.058-3.23-0.137-0.025-0.886-0.068-1.77-0.129-2.653z"></path>
</svg>
