<!-- Generated by IcoMoon.io -->
<svg version="1.1" xmlns="http://www.w3.org/2000/svg" width="32" height="32" viewBox="0 0 32 32">
<path d="M28 25.333v-18.667c0-1.467-1.2-2.667-2.667-2.667h-18.667c-1.467 0-2.667 1.2-2.667 2.667v18.667c0 1.467 1.2 2.667 2.667 2.667h18.667c1.467 0 2.667-1.2 2.667-2.667zM11.867 18.64l2.8 3.373 4.133-5.32c0.267-0.347 0.8-0.347 1.067 0.013l4.68 6.24c0.074 0.099 0.12 0.217 0.131 0.34s-0.012 0.247-0.068 0.358-0.14 0.204-0.246 0.269c-0.105 0.065-0.227 0.1-0.351 0.1h-15.987c-0.56 0-0.867-0.64-0.52-1.080l3.32-4.267c0.253-0.347 0.76-0.36 1.040-0.027z"></path>
</svg>
