<!-- Generated by IcoMoon.io -->
<svg version="1.1" xmlns="http://www.w3.org/2000/svg" width="32" height="32" viewBox="0 0 32 32">
<path d="M3.556 8.444c0-0.817 0.161-1.626 0.474-2.381s0.771-1.441 1.349-2.019c0.578-0.578 1.264-1.036 2.019-1.349s1.564-0.474 2.381-0.474c0.817 0 1.626 0.161 2.381 0.474s1.441 0.771 2.019 1.349c0.578 0.578 1.036 1.264 1.349 2.019s0.474 1.564 0.474 2.381-0.161 1.626-0.474 2.381c-0.313 0.755-0.771 1.441-1.349 2.019s-1.264 1.036-2.019 1.349-1.564 0.474-2.381 0.474c-0.817 0-1.626-0.161-2.381-0.474s-1.441-0.771-2.019-1.349c-0.578-0.578-1.036-1.264-1.349-2.019s-0.474-1.564-0.474-2.381zM0 27.111c0-5.4 4.378-9.778 9.778-9.778s9.778 4.378 9.778 9.778v0.333c0 1.289-1.045 2.333-2.333 2.333h-14.889c-1.289 0-2.333-1.045-2.333-2.333v-0.333zM24 4.889c1.415 0 2.771 0.562 3.771 1.562s1.562 2.357 1.562 3.771-0.562 2.771-1.562 3.771c-1 1-2.357 1.562-3.771 1.562s-2.771-0.562-3.771-1.562c-1-1-1.562-2.357-1.562-3.771s0.562-2.771 1.562-3.771c1-1 2.357-1.562 3.771-1.562zM24 18.222c4.417 0 8 3.583 8 8v1.244c0 1.278-1.033 2.311-2.311 2.311h-8.045c0.367-0.695 0.578-1.489 0.578-2.333v-0.333c0-2.861-0.967-5.495-2.583-7.595 1.255-0.817 2.755-1.294 4.361-1.294z"></path>
</svg>
