<!-- Generated by IcoMoon.io -->
<svg version="1.1" xmlns="http://www.w3.org/2000/svg" width="32" height="32" viewBox="0 0 32 32">
<path d="M11.675 2.667c-1.768 0-3.464 0.702-4.714 1.953s-1.953 2.946-1.953 4.714c0 1.768 0.702 3.464 1.953 4.714s2.946 1.953 4.714 1.953 3.464-0.702 4.714-1.953c1.25-1.25 1.953-2.946 1.953-4.714s-0.702-3.464-1.953-4.714c-1.25-1.25-2.946-1.953-4.714-1.953zM8.342 17.667c-1.768 0-3.464 0.702-4.714 1.953s-1.953 2.946-1.953 4.714v1.667c0 0.884 0.351 1.732 0.976 2.357s1.473 0.976 2.357 0.976h13.333c0.884 0 1.732-0.351 2.357-0.976s0.976-1.473 0.976-2.357v-1.667c0-1.768-0.702-3.464-1.953-4.714s-2.946-1.953-4.714-1.953h-6.667z"></path>
<path fill="none" stroke-linejoin="miter" stroke-linecap="round" stroke-miterlimit="4" stroke-width="3.3333" stroke="#000" d="M23.523 17.65l6.802-5.831"></path>
<path fill="none" stroke-linejoin="miter" stroke-linecap="round" stroke-miterlimit="4" stroke-width="3.3333" stroke="#000" d="M23.423 17.29l-2.802-2.933"></path>
</svg>
