<!-- Generated by IcoMoon.io -->
<svg version="1.1" xmlns="http://www.w3.org/2000/svg" width="32" height="32" viewBox="0 0 32 32">
<path d="M23.455 0.825l0.529 0.119c1.382 0.308 2.651 0.994 3.666 1.982s1.737 2.239 2.084 3.613c1.243 4.912 1.243 10.057 0 14.97-0.347 1.374-1.069 2.625-2.084 3.613s-2.284 1.674-3.665 1.983l-0.531 0.117c-3.128 0.698-6.339 0.955-9.538 0.761l-4.262 3.819c-0.104 0.093-0.231 0.157-0.368 0.184s-0.278 0.017-0.41-0.029-0.248-0.127-0.338-0.234c-0.090-0.107-0.149-0.236-0.173-0.374l-0.726-4.339c-1.301-0.36-2.484-1.059-3.428-2.026s-1.616-2.166-1.947-3.476c-1.242-4.912-1.242-10.057 0-14.97 0.347-1.374 1.069-2.625 2.084-3.613s2.284-1.674 3.665-1.983l0.529-0.117c4.91-1.099 10.002-1.099 14.911 0zM9.861 6.411c-0.29-0.043-0.586 0.016-0.838 0.166h-0.022c-0.585 0.344-1.113 0.777-1.562 1.286-0.375 0.433-0.577 0.871-0.63 1.293-0.031 0.25-0.009 0.503 0.064 0.742l0.028 0.016c0.421 1.24 0.971 2.432 1.642 3.554 0.866 1.576 1.93 3.034 3.168 4.338l0.037 0.053 0.059 0.044 0.036 0.042 0.044 0.038c1.306 1.243 2.765 2.315 4.342 3.189 1.803 0.983 2.896 1.447 3.553 1.641v0.009c0.192 0.059 0.367 0.086 0.543 0.086 0.56-0.040 1.090-0.268 1.504-0.647 0.507-0.45 0.936-0.98 1.27-1.569v-0.011c0.314-0.594 0.208-1.154-0.245-1.533-0.908-0.796-1.891-1.503-2.935-2.11-0.699-0.38-1.409-0.15-1.696 0.235l-0.613 0.775c-0.315 0.385-0.886 0.331-0.886 0.331l-0.016 0.009c-4.262-1.089-5.4-5.411-5.4-5.411s-0.053-0.588 0.342-0.888l0.768-0.619c0.368-0.3 0.624-1.010 0.229-1.71-0.605-1.045-1.309-2.029-2.102-2.939-0.174-0.214-0.417-0.359-0.687-0.411zM17.061 4.532c-0.207 0-0.405 0.082-0.552 0.229s-0.229 0.345-0.229 0.553 0.082 0.406 0.229 0.553c0.146 0.147 0.345 0.229 0.552 0.229 1.974 0 3.613 0.646 4.91 1.883 0.666 0.677 1.186 1.479 1.526 2.357 0.342 0.88 0.498 1.819 0.457 2.76-0.004 0.103 0.012 0.205 0.047 0.302s0.089 0.185 0.159 0.261c0.14 0.153 0.335 0.243 0.542 0.252s0.409-0.065 0.561-0.206c0.152-0.14 0.243-0.336 0.252-0.543 0.047-1.157-0.145-2.312-0.563-3.392-0.42-1.085-1.060-2.072-1.879-2.898l-0.016-0.016c-1.609-1.54-3.646-2.324-5.996-2.324zM17.008 7.102c-0.207 0-0.405 0.082-0.552 0.229s-0.229 0.345-0.229 0.553 0.082 0.406 0.229 0.553c0.146 0.147 0.345 0.229 0.552 0.229h0.027c1.423 0.102 2.459 0.577 3.185 1.357 0.744 0.803 1.13 1.802 1.1 3.037-0.005 0.207 0.073 0.408 0.216 0.558s0.339 0.237 0.546 0.242c0.207 0.005 0.407-0.073 0.557-0.216s0.237-0.34 0.241-0.547c0.037-1.621-0.484-3.020-1.517-4.136v-0.003c-1.057-1.135-2.506-1.735-4.251-1.852l-0.027-0.003-0.078 0.002zM16.979 9.72c-0.104-0.009-0.21 0.003-0.309 0.035s-0.192 0.085-0.271 0.153c-0.079 0.069-0.144 0.153-0.19 0.247s-0.072 0.197-0.078 0.302 0.010 0.21 0.046 0.308c0.036 0.099 0.091 0.189 0.163 0.266s0.158 0.138 0.254 0.181c0.096 0.043 0.199 0.065 0.304 0.067 0.652 0.034 1.069 0.231 1.331 0.495 0.264 0.266 0.46 0.692 0.496 1.36 0.002 0.105 0.025 0.208 0.068 0.304s0.104 0.182 0.181 0.253 0.167 0.127 0.265 0.163c0.099 0.036 0.203 0.051 0.308 0.046s0.207-0.032 0.301-0.078c0.094-0.046 0.178-0.111 0.247-0.19s0.121-0.171 0.153-0.271c0.032-0.1 0.044-0.205 0.035-0.31-0.050-0.938-0.343-1.766-0.944-2.376-0.604-0.61-1.426-0.907-2.36-0.957z"></path>
</svg>
