<svg width="108" height="62" viewBox="0 0 108 62" fill="none" xmlns="http://www.w3.org/2000/svg">
<g filter="url(#filter0_dddddd_168_50901)">
<path d="M42.8781 8.13086C33.5628 8.13086 26.0084 15.6882 26.0084 25.0071C26.0084 27.7636 26.6745 30.374 27.8514 32.674L24.1928 39.4921C23.5268 40.7334 24.6946 42.1572 26.0358 41.7556L33.9916 39.3643C36.5736 40.9707 39.6118 41.8925 42.8781 41.8925C52.1933 41.8925 59.7477 34.3352 59.7477 25.0163C59.7477 15.6882 52.1933 8.13086 42.8781 8.13086Z" fill="url(#paint0_linear_168_50901)"/>
<foreignObject x="27.1731" y="-3.75078" width="57.5523" height="57.5484"><div xmlns="http://www.w3.org/1999/xhtml" style="backdrop-filter:blur(5.39px);clip-path:url(#bgblur_0_168_50901_clip_path);height:100%;width:100%"></div></foreignObject><g data-figma-bg-blur-radius="10.7879">
<path d="M61.3772 42.1663C70.8458 39.1688 76.0919 29.0638 73.0947 19.5962C70.0974 10.1286 59.9919 4.88354 50.5233 7.88108C41.0547 10.8786 35.8086 20.9836 38.8059 30.4512C41.8031 39.9188 51.9086 45.1638 61.3772 42.1663Z" fill="url(#paint1_linear_168_50901)"/>
<path d="M50.6672 8.33437C59.8852 5.41641 69.7233 10.5232 72.6412 19.7401C75.5588 28.9568 70.4516 38.7941 61.2339 41.7124C52.016 44.6306 42.1774 39.5247 39.2594 30.308C36.3415 21.091 41.4492 11.2526 50.6672 8.33437Z" stroke="url(#paint2_linear_168_50901)" stroke-opacity="0.4" stroke-width="0.951872"/>
</g>
<circle cx="47.9948" cy="25.0231" r="2.24091" fill="url(#paint3_linear_168_50901)"/>
<circle cx="55.9479" cy="25.0231" r="2.24091" fill="url(#paint4_linear_168_50901)"/>
<circle cx="63.905" cy="25.0231" r="2.24091" fill="url(#paint5_linear_168_50901)"/>
</g>
<defs>
<filter id="filter0_dddddd_168_50901" x="-9.33333" y="0" width="116.667" height="125" filterUnits="userSpaceOnUse" color-interpolation-filters="sRGB">
<feFlood flood-opacity="0" result="BackgroundImageFix"/>
<feColorMatrix in="SourceAlpha" type="matrix" values="0 0 0 0 0 0 0 0 0 0 0 0 0 0 0 0 0 0 127 0" result="hardAlpha"/>
<feOffset dy="1.15302"/>
<feGaussianBlur stdDeviation="0.461209"/>
<feColorMatrix type="matrix" values="0 0 0 0 0 0 0 0 0 0 0 0 0 0 0 0 0 0 0.0196802 0"/>
<feBlend mode="normal" in2="BackgroundImageFix" result="effect1_dropShadow_168_50901"/>
<feColorMatrix in="SourceAlpha" type="matrix" values="0 0 0 0 0 0 0 0 0 0 0 0 0 0 0 0 0 0 127 0" result="hardAlpha"/>
<feOffset dy="2.77088"/>
<feGaussianBlur stdDeviation="1.10835"/>
<feColorMatrix type="matrix" values="0 0 0 0 0 0 0 0 0 0 0 0 0 0 0 0 0 0 0.0282725 0"/>
<feBlend mode="normal" in2="effect1_dropShadow_168_50901" result="effect2_dropShadow_168_50901"/>
<feColorMatrix in="SourceAlpha" type="matrix" values="0 0 0 0 0 0 0 0 0 0 0 0 0 0 0 0 0 0 127 0" result="hardAlpha"/>
<feOffset dy="5.21731"/>
<feGaussianBlur stdDeviation="2.08693"/>
<feColorMatrix type="matrix" values="0 0 0 0 0 0 0 0 0 0 0 0 0 0 0 0 0 0 0.035 0"/>
<feBlend mode="normal" in2="effect2_dropShadow_168_50901" result="effect3_dropShadow_168_50901"/>
<feColorMatrix in="SourceAlpha" type="matrix" values="0 0 0 0 0 0 0 0 0 0 0 0 0 0 0 0 0 0 127 0" result="hardAlpha"/>
<feOffset dy="9.3068"/>
<feGaussianBlur stdDeviation="3.72272"/>
<feColorMatrix type="matrix" values="0 0 0 0 0 0 0 0 0 0 0 0 0 0 0 0 0 0 0.0417275 0"/>
<feBlend mode="normal" in2="effect3_dropShadow_168_50901" result="effect4_dropShadow_168_50901"/>
<feColorMatrix in="SourceAlpha" type="matrix" values="0 0 0 0 0 0 0 0 0 0 0 0 0 0 0 0 0 0 127 0" result="hardAlpha"/>
<feOffset dy="17.4073"/>
<feGaussianBlur stdDeviation="6.96293"/>
<feColorMatrix type="matrix" values="0 0 0 0 0 0 0 0 0 0 0 0 0 0 0 0 0 0 0.0503198 0"/>
<feBlend mode="normal" in2="effect4_dropShadow_168_50901" result="effect5_dropShadow_168_50901"/>
<feColorMatrix in="SourceAlpha" type="matrix" values="0 0 0 0 0 0 0 0 0 0 0 0 0 0 0 0 0 0 127 0" result="hardAlpha"/>
<feOffset dy="41.6667"/>
<feGaussianBlur stdDeviation="16.6667"/>
<feColorMatrix type="matrix" values="0 0 0 0 0 0 0 0 0 0 0 0 0 0 0 0 0 0 0.07 0"/>
<feBlend mode="normal" in2="effect5_dropShadow_168_50901" result="effect6_dropShadow_168_50901"/>
<feBlend mode="normal" in="SourceGraphic" in2="effect6_dropShadow_168_50901" result="shape"/>
</filter>
<clipPath id="bgblur_0_168_50901_clip_path" transform="translate(-27.1731 3.75078)"><path d="M61.3772 42.1663C70.8458 39.1688 76.0919 29.0638 73.0947 19.5962C70.0974 10.1286 59.9919 4.88354 50.5233 7.88108C41.0547 10.8786 35.8086 20.9836 38.8059 30.4512C41.8031 39.9188 51.9086 45.1638 61.3772 42.1663Z"/>
</clipPath><linearGradient id="paint0_linear_168_50901" x1="28.2222" y1="15.7994" x2="52.0897" y2="39.6574" gradientUnits="userSpaceOnUse">
<stop stop-color="#8FFF00"/>
<stop offset="1" stop-color="#04AA5A"/>
</linearGradient>
<linearGradient id="paint1_linear_168_50901" x1="52.3468" y1="20.4206" x2="61.5681" y2="38.8631" gradientUnits="userSpaceOnUse">
<stop stop-color="white" stop-opacity="0.15"/>
<stop offset="1" stop-color="white" stop-opacity="0.12"/>
</linearGradient>
<linearGradient id="paint2_linear_168_50901" x1="50.5233" y1="7.88108" x2="61.3772" y2="42.1663" gradientUnits="userSpaceOnUse">
<stop stop-color="white"/>
<stop offset="1" stop-color="white" stop-opacity="0"/>
</linearGradient>
<linearGradient id="paint3_linear_168_50901" x1="47.9948" y1="22.7822" x2="50.2357" y2="28.5345" gradientUnits="userSpaceOnUse">
<stop stop-color="white" stop-opacity="0.27"/>
<stop offset="1" stop-color="white" stop-opacity="0.49"/>
</linearGradient>
<linearGradient id="paint4_linear_168_50901" x1="55.9479" y1="22.7822" x2="58.1888" y2="28.5345" gradientUnits="userSpaceOnUse">
<stop stop-color="white" stop-opacity="0.27"/>
<stop offset="1" stop-color="white" stop-opacity="0.49"/>
</linearGradient>
<linearGradient id="paint5_linear_168_50901" x1="63.905" y1="22.7822" x2="66.1459" y2="28.5345" gradientUnits="userSpaceOnUse">
<stop stop-color="white" stop-opacity="0.27"/>
<stop offset="1" stop-color="white" stop-opacity="0.49"/>
</linearGradient>
</defs>
</svg>
