<svg width="108" height="62" viewBox="0 0 108 62" fill="none" xmlns="http://www.w3.org/2000/svg">
<g filter="url(#filter0_dddddd_168_50921)">
<path d="M36.168 19.3593C36.168 18.5193 36.8489 17.8384 37.6889 17.8384H72.4857C73.3257 17.8384 74.0066 18.5193 74.0066 19.3593V33.3178C74.0066 36.1635 71.6924 38.4777 68.8468 38.4777H41.3278C38.4821 38.4777 36.168 36.1635 36.168 33.3178V19.3593ZM74.0066 14.3985C74.0066 14.8735 73.6216 15.2585 73.1466 15.2585H37.6889C36.8489 15.2585 36.168 14.5776 36.168 13.7376V10.9586C36.168 8.113 38.4821 5.79883 41.3278 5.79883H44.6782C46.2348 5.79883 47.7612 6.33459 48.9763 7.30635L50.4495 8.48451C51.0558 8.97125 51.8185 9.2387 52.5968 9.2387H68.8468C71.6924 9.2387 74.0066 11.5529 74.0066 14.3985Z" fill="black"/>
<path d="M36.168 19.3593C36.168 18.5193 36.8489 17.8384 37.6889 17.8384H72.4857C73.3257 17.8384 74.0066 18.5193 74.0066 19.3593V33.3178C74.0066 36.1635 71.6924 38.4777 68.8468 38.4777H41.3278C38.4821 38.4777 36.168 36.1635 36.168 33.3178V19.3593ZM74.0066 14.3985C74.0066 14.8735 73.6216 15.2585 73.1466 15.2585H37.6889C36.8489 15.2585 36.168 14.5776 36.168 13.7376V10.9586C36.168 8.113 38.4821 5.79883 41.3278 5.79883H44.6782C46.2348 5.79883 47.7612 6.33459 48.9763 7.30635L50.4495 8.48451C51.0558 8.97125 51.8185 9.2387 52.5968 9.2387H68.8468C71.6924 9.2387 74.0066 11.5529 74.0066 14.3985Z" fill="url(#paint0_linear_168_50921)"/>
<foreignObject x="15.9408" y="1.51792" width="58.4427" height="50.72"><div xmlns="http://www.w3.org/1999/xhtml" style="backdrop-filter:blur(4.39px);clip-path:url(#bgblur_0_168_50921_clip_path);height:100%;width:100%"></div></foreignObject><g data-figma-bg-blur-radius="8.77798">
<path d="M26.0397 25.2763C25.9134 24.4459 26.4842 23.6703 27.3146 23.5439L61.7155 18.3099C62.5459 18.1835 63.3215 18.7543 63.4479 19.5847L65.5475 33.3844C65.9755 36.1977 64.0358 38.8336 61.2225 39.2617L34.0166 43.401C31.2033 43.829 28.5674 41.8893 28.1393 39.076L26.0397 25.2763ZM62.7017 14.6804C62.7731 15.1499 62.4504 15.5885 61.9809 15.6599L26.9265 20.9934C26.0961 21.1197 25.3205 20.549 25.1941 19.7185L24.7761 16.9712C24.3481 14.158 26.2878 11.522 29.1011 11.094L32.4134 10.59C33.9523 10.3559 35.5419 10.656 36.8894 11.4339L38.523 12.3771C39.1956 12.7671 39.9899 12.9167 40.7593 12.7997L56.8244 10.3554C59.6377 9.92735 62.2736 11.8671 62.7017 14.6804Z" fill="url(#paint1_linear_168_50921)"/>
<path d="M27.3789 23.9693L61.7798 18.7352C62.3755 18.6446 62.9317 19.0539 63.0223 19.6495L65.1219 33.4487C65.5142 36.0272 63.7362 38.4445 61.1577 38.8368L33.9523 42.9761C31.3738 43.3684 28.9564 41.5894 28.5641 39.0109L26.4645 25.2117C26.3739 24.6162 26.7834 24.0601 27.3789 23.9693ZM29.1661 11.5187L32.4785 11.0148C33.9207 10.7954 35.4118 11.0776 36.6747 11.8066L38.3076 12.7485C39.0652 13.1878 39.9581 13.3567 40.8239 13.225L56.889 10.7807C59.4675 10.3884 61.8838 12.1666 62.2761 14.745C62.3118 14.9798 62.1507 15.1987 61.916 15.2345L26.8614 20.568C26.2659 20.6584 25.7095 20.2492 25.6189 19.6536L25.201 16.9069C24.8087 14.3284 26.5876 11.9111 29.1661 11.5187Z" stroke="url(#paint2_linear_168_50921)" stroke-opacity="0.3" stroke-width="0.859969"/>
</g>
<mask id="mask0_168_50921" style="mask-type:luminance" maskUnits="userSpaceOnUse" x="37" y="23" width="18" height="15">
<path d="M38.5529 26.8981C38.5254 26.7174 38.5708 26.5332 38.6791 26.386C38.7875 26.2388 38.9498 26.1406 39.1305 26.1131L51.3944 24.2475C51.5751 24.22 51.7593 24.2654 51.9065 24.3737C52.0537 24.4821 52.1519 24.6444 52.1794 24.8251L53.6304 34.3637C53.6579 34.5444 53.6125 34.7286 53.5042 34.8758C53.3958 35.023 53.2335 35.1212 53.0528 35.1487L40.7889 37.0143C40.6082 37.0418 40.424 36.9964 40.2768 36.8881C40.1296 36.7797 40.0314 36.6174 40.004 36.4367L38.5529 26.8981Z" fill="black"/>
<path d="M38.5529 26.8981C38.5254 26.7174 38.5708 26.5332 38.6791 26.386C38.7875 26.2388 38.9498 26.1406 39.1305 26.1131L51.3944 24.2475C51.5751 24.22 51.7593 24.2654 51.9065 24.3737C52.0537 24.4821 52.1519 24.6444 52.1794 24.8251L53.6304 34.3637C53.6579 34.5444 53.6125 34.7286 53.5042 34.8758C53.3958 35.023 53.2335 35.1212 53.0528 35.1487L40.7889 37.0143C40.6082 37.0418 40.424 36.9964 40.2768 36.8881C40.1296 36.7797 40.0314 36.6174 40.004 36.4367L38.5529 26.8981Z" fill="url(#paint3_linear_168_50921)"/>
<path d="M38.5529 26.8981C38.5254 26.7174 38.5708 26.5332 38.6791 26.386C38.7875 26.2388 38.9498 26.1406 39.1305 26.1131L51.3944 24.2475C51.5751 24.22 51.7593 24.2654 51.9065 24.3737C52.0537 24.4821 52.1519 24.6444 52.1794 24.8251L53.6304 34.3637C53.6579 34.5444 53.6125 34.7286 53.5042 34.8758C53.3958 35.023 53.2335 35.1212 53.0528 35.1487L40.7889 37.0143C40.6082 37.0418 40.424 36.9964 40.2768 36.8881C40.1296 36.7797 40.0314 36.6174 40.004 36.4367L38.5529 26.8981Z" stroke="black" stroke-width="1.37833" stroke-linejoin="round"/>
<path d="M49.3504 24.5584L51.0088 35.4596L49.3504 24.5584ZM41.1745 25.8022L42.8329 36.7034L41.1745 25.8022ZM50.55 27.8614L52.594 27.5504L50.55 27.8614ZM51.1719 31.9493L53.2159 31.6384L51.1719 31.9493ZM38.9675 29.6234L41.0114 29.3125L38.9675 29.6234Z" fill="black"/>
<path d="M49.3504 24.5584L51.0088 35.4596L49.3504 24.5584ZM41.1745 25.8022L42.8329 36.7034L41.1745 25.8022ZM50.55 27.8614L52.594 27.5504L50.55 27.8614ZM51.1719 31.9493L53.2159 31.6384L51.1719 31.9493ZM38.9675 29.6234L41.0114 29.3125L38.9675 29.6234Z" fill="url(#paint4_linear_168_50921)"/>
<path d="M49.3504 24.5584L51.0088 35.4596M41.1745 25.8022L42.8329 36.7034M50.55 27.8614L52.594 27.5504M51.1719 31.9493L53.2159 31.6384M38.9675 29.6234L41.0114 29.3125" stroke="black" stroke-width="1.37833" stroke-linecap="round" stroke-linejoin="round"/>
<path d="M38.8638 28.9421L39.0711 30.3047L38.8638 28.9421ZM40.1525 25.9577L42.1965 25.6467L40.1525 25.9577ZM41.8109 36.8589L43.8549 36.5479L41.8109 36.8589ZM48.3284 24.7139L50.3724 24.4029L48.3284 24.7139ZM49.9868 35.6151L52.0308 35.3041L49.9868 35.6151Z" fill="black"/>
<path d="M38.8638 28.9421L39.0711 30.3047L38.8638 28.9421ZM40.1525 25.9577L42.1965 25.6467L40.1525 25.9577ZM41.8109 36.8589L43.8549 36.5479L41.8109 36.8589ZM48.3284 24.7139L50.3724 24.4029L48.3284 24.7139ZM49.9868 35.6151L52.0308 35.3041L49.9868 35.6151Z" fill="url(#paint5_linear_168_50921)"/>
<path d="M38.8638 28.9421L39.0711 30.3047M40.1525 25.9577L42.1965 25.6467M41.8109 36.8589L43.8549 36.5479M48.3284 24.7139L50.3724 24.4029M49.9868 35.6151L52.0308 35.3041" stroke="black" stroke-width="1.37833" stroke-linecap="round" stroke-linejoin="round"/>
<path d="M39.5898 33.7109L41.6338 33.4L39.5898 33.7109Z" fill="black"/>
<path d="M39.5898 33.7109L41.6338 33.4L39.5898 33.7109Z" fill="url(#paint6_linear_168_50921)"/>
<path d="M39.5898 33.7109L41.6338 33.4" stroke="black" stroke-width="1.37833" stroke-linecap="round" stroke-linejoin="round"/>
<path d="M39.4852 33.0303L39.6925 34.393L39.4852 33.0303ZM53.1117 30.9574L53.319 32.32L53.1117 30.9574ZM52.4898 26.8694L52.6971 28.2321L52.4898 26.8694Z" fill="black"/>
<path d="M39.4852 33.0303L39.6925 34.393L39.4852 33.0303ZM53.1117 30.9574L53.319 32.32L53.1117 30.9574ZM52.4898 26.8694L52.6971 28.2321L52.4898 26.8694Z" fill="url(#paint7_linear_168_50921)"/>
<path d="M39.4852 33.0303L39.6925 34.393M53.1117 30.9574L53.319 32.32M52.4898 26.8694L52.6971 28.2321" stroke="black" stroke-width="1.37833" stroke-linecap="round" stroke-linejoin="round"/>
<path d="M44.8125 29.083L47.7969 30.3717L45.3307 32.4896L44.8125 29.083Z" fill="black"/>
<path d="M44.8125 29.083L47.7969 30.3717L45.3307 32.4896L44.8125 29.083Z" fill="url(#paint8_linear_168_50921)"/>
<path d="M44.8125 29.083L47.7969 30.3717L45.3307 32.4896L44.8125 29.083Z" stroke="black" stroke-width="1.37833" stroke-linejoin="round"/>
</mask>
<g mask="url(#mask0_168_50921)">
<path d="M52.8787 21.4075L55.3145 37.4186L39.3034 39.8544L36.8676 23.8433L52.8787 21.4075Z" fill="black"/>
<path d="M52.8787 21.4075L55.3145 37.4186L39.3034 39.8544L36.8676 23.8433L52.8787 21.4075Z" fill="url(#paint9_linear_168_50921)"/>
<path d="M52.8787 21.4075L55.3145 37.4186L39.3034 39.8544L36.8676 23.8433L52.8787 21.4075Z" stroke="black" stroke-width="0.344582"/>
</g>
</g>
<defs>
<filter id="filter0_dddddd_168_50921" x="-9.33333" y="0" width="116.674" height="125" filterUnits="userSpaceOnUse" color-interpolation-filters="sRGB">
<feFlood flood-opacity="0" result="BackgroundImageFix"/>
<feColorMatrix in="SourceAlpha" type="matrix" values="0 0 0 0 0 0 0 0 0 0 0 0 0 0 0 0 0 0 127 0" result="hardAlpha"/>
<feOffset dy="1.15302"/>
<feGaussianBlur stdDeviation="0.461209"/>
<feColorMatrix type="matrix" values="0 0 0 0 0 0 0 0 0 0 0 0 0 0 0 0 0 0 0.0196802 0"/>
<feBlend mode="normal" in2="BackgroundImageFix" result="effect1_dropShadow_168_50921"/>
<feColorMatrix in="SourceAlpha" type="matrix" values="0 0 0 0 0 0 0 0 0 0 0 0 0 0 0 0 0 0 127 0" result="hardAlpha"/>
<feOffset dy="2.77088"/>
<feGaussianBlur stdDeviation="1.10835"/>
<feColorMatrix type="matrix" values="0 0 0 0 0 0 0 0 0 0 0 0 0 0 0 0 0 0 0.0282725 0"/>
<feBlend mode="normal" in2="effect1_dropShadow_168_50921" result="effect2_dropShadow_168_50921"/>
<feColorMatrix in="SourceAlpha" type="matrix" values="0 0 0 0 0 0 0 0 0 0 0 0 0 0 0 0 0 0 127 0" result="hardAlpha"/>
<feOffset dy="5.21731"/>
<feGaussianBlur stdDeviation="2.08693"/>
<feColorMatrix type="matrix" values="0 0 0 0 0 0 0 0 0 0 0 0 0 0 0 0 0 0 0.035 0"/>
<feBlend mode="normal" in2="effect2_dropShadow_168_50921" result="effect3_dropShadow_168_50921"/>
<feColorMatrix in="SourceAlpha" type="matrix" values="0 0 0 0 0 0 0 0 0 0 0 0 0 0 0 0 0 0 127 0" result="hardAlpha"/>
<feOffset dy="9.3068"/>
<feGaussianBlur stdDeviation="3.72272"/>
<feColorMatrix type="matrix" values="0 0 0 0 0 0 0 0 0 0 0 0 0 0 0 0 0 0 0.0417275 0"/>
<feBlend mode="normal" in2="effect3_dropShadow_168_50921" result="effect4_dropShadow_168_50921"/>
<feColorMatrix in="SourceAlpha" type="matrix" values="0 0 0 0 0 0 0 0 0 0 0 0 0 0 0 0 0 0 127 0" result="hardAlpha"/>
<feOffset dy="17.4073"/>
<feGaussianBlur stdDeviation="6.96293"/>
<feColorMatrix type="matrix" values="0 0 0 0 0 0 0 0 0 0 0 0 0 0 0 0 0 0 0.0503198 0"/>
<feBlend mode="normal" in2="effect4_dropShadow_168_50921" result="effect5_dropShadow_168_50921"/>
<feColorMatrix in="SourceAlpha" type="matrix" values="0 0 0 0 0 0 0 0 0 0 0 0 0 0 0 0 0 0 127 0" result="hardAlpha"/>
<feOffset dy="41.6667"/>
<feGaussianBlur stdDeviation="16.6667"/>
<feColorMatrix type="matrix" values="0 0 0 0 0 0 0 0 0 0 0 0 0 0 0 0 0 0 0.07 0"/>
<feBlend mode="normal" in2="effect5_dropShadow_168_50921" result="effect6_dropShadow_168_50921"/>
<feBlend mode="normal" in="SourceGraphic" in2="effect6_dropShadow_168_50921" result="shape"/>
</filter>
<clipPath id="bgblur_0_168_50921_clip_path" transform="translate(-15.9408 -1.51792)"><path d="M26.0397 25.2763C25.9134 24.4459 26.4842 23.6703 27.3146 23.5439L61.7155 18.3099C62.5459 18.1835 63.3215 18.7543 63.4479 19.5847L65.5475 33.3844C65.9755 36.1977 64.0358 38.8336 61.2225 39.2617L34.0166 43.401C31.2033 43.829 28.5674 41.8893 28.1393 39.076L26.0397 25.2763ZM62.7017 14.6804C62.7731 15.1499 62.4504 15.5885 61.9809 15.6599L26.9265 20.9934C26.0961 21.1197 25.3205 20.549 25.1941 19.7185L24.7761 16.9712C24.3481 14.158 26.2878 11.522 29.1011 11.094L32.4134 10.59C33.9523 10.3559 35.5419 10.656 36.8894 11.4339L38.523 12.3771C39.1956 12.7671 39.9899 12.9167 40.7593 12.7997L56.8244 10.3554C59.6377 9.92735 62.2736 11.8671 62.7017 14.6804Z"/>
</clipPath><linearGradient id="paint0_linear_168_50921" x1="55.0873" y1="5.79883" x2="55.0873" y2="38.4777" gradientUnits="userSpaceOnUse">
<stop stop-color="#FF9900"/>
<stop offset="1" stop-color="#FFBC58"/>
</linearGradient>
<linearGradient id="paint1_linear_168_50921" x1="42.2852" y1="20.5822" x2="47.6043" y2="38.609" gradientUnits="userSpaceOnUse">
<stop stop-color="white" stop-opacity="0.15"/>
<stop offset="1" stop-color="white" stop-opacity="0.12"/>
</linearGradient>
<linearGradient id="paint2_linear_168_50921" x1="42.7041" y1="9.02432" x2="47.6195" y2="41.3313" gradientUnits="userSpaceOnUse">
<stop/>
<stop offset="0.0001" stop-color="white" stop-opacity="0.984375"/>
<stop offset="1" stop-color="white" stop-opacity="0.32"/>
</linearGradient>
<linearGradient id="paint3_linear_168_50921" x1="45.2625" y1="25.1803" x2="52.0746" y2="39.1719" gradientUnits="userSpaceOnUse">
<stop stop-color="white" stop-opacity="0.27"/>
<stop offset="1" stop-color="white" stop-opacity="0.49"/>
</linearGradient>
<linearGradient id="paint4_linear_168_50921" x1="45.2625" y1="25.1803" x2="52.0746" y2="39.1719" gradientUnits="userSpaceOnUse">
<stop stop-color="white" stop-opacity="0.27"/>
<stop offset="1" stop-color="white" stop-opacity="0.49"/>
</linearGradient>
<linearGradient id="paint5_linear_168_50921" x1="44.4108" y1="25.3099" x2="51.6798" y2="38.8354" gradientUnits="userSpaceOnUse">
<stop stop-color="white" stop-opacity="0.27"/>
<stop offset="1" stop-color="white" stop-opacity="0.49"/>
</linearGradient>
<linearGradient id="paint6_linear_168_50921" x1="40.6118" y1="33.5555" x2="41.0925" y2="34.9263" gradientUnits="userSpaceOnUse">
<stop stop-color="white" stop-opacity="0.27"/>
<stop offset="1" stop-color="white" stop-opacity="0.49"/>
</linearGradient>
<linearGradient id="paint7_linear_168_50921" x1="45.6765" y1="27.9059" x2="48.099" y2="35.5857" gradientUnits="userSpaceOnUse">
<stop stop-color="white" stop-opacity="0.27"/>
<stop offset="1" stop-color="white" stop-opacity="0.49"/>
</linearGradient>
<linearGradient id="paint8_linear_168_50921" x1="46.1751" y1="28.8757" x2="48.7766" y2="32.6447" gradientUnits="userSpaceOnUse">
<stop stop-color="white" stop-opacity="0.27"/>
<stop offset="1" stop-color="white" stop-opacity="0.49"/>
</linearGradient>
<linearGradient id="paint9_linear_168_50921" x1="44.8478" y1="22.4554" x2="56.2164" y2="42.1985" gradientUnits="userSpaceOnUse">
<stop stop-color="white" stop-opacity="0.27"/>
<stop offset="1" stop-color="white" stop-opacity="0.49"/>
</linearGradient>
</defs>
</svg>
